<svg width="195" height="48" viewBox="0 0 195 48" fill="none" xmlns="http://www.w3.org/2000/svg">
<path d="M0 10C0 4.47715 4.47715 0 10 0H136C141.523 0 146 4.47715 146 10V38C146 43.5229 141.523 48 136 48H10C4.47715 48 0 43.5229 0 38V10Z" fill="#FFFBF9"/>
<path d="M28.8792 24.4067C28.9224 28.7955 32.9554 30.2559 33 30.2745C32.9658 30.3775 32.3556 32.3557 30.8753 34.3991C29.5956 36.1658 28.2674 37.9259 26.1751 37.9623C24.1194 37.9981 23.4583 36.8109 21.1079 36.8109C18.7582 36.8109 18.0237 37.9259 16.0777 37.9981C14.0581 38.0703 12.5202 36.0878 11.23 34.3276C8.59329 30.7272 6.57835 24.1536 9.28391 19.7164C10.628 17.5128 13.03 16.1175 15.637 16.0817C17.6201 16.046 19.492 17.3418 20.7043 17.3418C21.9158 17.3418 24.1905 15.7835 26.5818 16.0123C27.5828 16.0517 30.393 16.3942 32.1974 18.8889C32.0519 18.974 28.8443 20.7376 28.8792 24.4067ZM25.0156 13.6303C26.0879 12.4045 26.8095 10.698 26.6126 9C25.0671 9.05866 23.1983 9.97276 22.0898 11.1979C21.0963 12.2829 20.2263 14.0194 20.461 15.6837C22.1837 15.8097 23.9434 14.8569 25.0156 13.6303Z" fill="#373737"/>
<path d="M45.606 16.168C44.85 16.168 44.178 15.972 43.59 15.58C43.002 15.188 42.54 14.6327 42.204 13.914C41.868 13.186 41.7 12.332 41.7 11.352C41.7 10.3067 41.8773 9.38733 42.232 8.594C42.5867 7.79133 43.0953 7.166 43.758 6.718C44.43 6.26067 45.2373 6.032 46.18 6.032C46.7867 6.032 47.328 6.10667 47.804 6.256C48.28 6.40533 48.728 6.59667 49.148 6.83L48.658 7.936C48.266 7.72133 47.8647 7.544 47.454 7.404C47.0527 7.264 46.6047 7.194 46.11 7.194C45.522 7.194 44.9993 7.35267 44.542 7.67C44.0847 7.978 43.7207 8.43533 43.45 9.042C43.1887 9.64867 43.058 10.3907 43.058 11.268C43.058 12.052 43.1793 12.724 43.422 13.284C43.6647 13.8347 44.0007 14.2593 44.43 14.558C44.8593 14.8567 45.354 15.006 45.914 15.006C46.4367 15.006 46.8987 14.8987 47.3 14.684C47.7107 14.46 48.0327 14.2313 48.266 13.998V11.856H46.236V10.806H49.526V16H48.35V15.02C48.0233 15.3093 47.6267 15.5753 47.16 15.818C46.6933 16.0513 46.1753 16.168 45.606 16.168ZM54.2556 16.168C53.2103 16.168 52.3796 15.8367 51.7636 15.174C51.1569 14.502 50.8536 13.564 50.8536 12.36C50.8536 11.632 50.9889 10.9833 51.2596 10.414C51.5396 9.83533 51.9269 9.38267 52.4216 9.056C52.9163 8.72 53.4903 8.552 54.1436 8.552C54.8436 8.552 55.4223 8.706 55.8796 9.014C56.3463 9.31267 56.6963 9.71867 56.9296 10.232C57.1629 10.7453 57.2796 11.31 57.2796 11.926C57.2796 12.2527 57.2656 12.57 57.2376 12.878H52.1416C52.2256 13.5593 52.4636 14.0913 52.8556 14.474C53.2476 14.8567 53.7656 15.048 54.4096 15.048C54.8296 15.048 55.2076 15.006 55.5436 14.922C55.8796 14.8287 56.2016 14.712 56.5096 14.572L56.8036 15.65C56.4676 15.7993 56.0896 15.9207 55.6696 16.014C55.2496 16.1167 54.7783 16.168 54.2556 16.168ZM52.1276 11.856H56.1176C56.1176 11.1467 55.9403 10.6007 55.5856 10.218C55.2309 9.83533 54.7409 9.644 54.1156 9.644C53.5743 9.644 53.1263 9.83533 52.7716 10.218C52.4169 10.5913 52.2023 11.1373 52.1276 11.856ZM61.2968 16.168C60.5968 16.168 60.0415 15.9393 59.6308 15.482C59.2295 15.0153 59.0288 14.3527 59.0288 13.494V10.078H57.7688V8.986H59.0568L59.3228 6.69H60.2888V8.986H62.3048V10.078H60.2888V13.592C60.2888 14.1333 60.4008 14.5113 60.6248 14.726C60.8582 14.9407 61.1335 15.048 61.4508 15.048C61.6842 15.048 61.9035 15.0107 62.1088 14.936C62.3235 14.8613 62.5195 14.7727 62.6968 14.67L63.0468 15.678C62.8602 15.79 62.6082 15.8973 62.2908 16C61.9735 16.112 61.6422 16.168 61.2968 16.168ZM68.0905 16V8.72H69.3505V16H68.0905ZM68.7205 7.474C68.4779 7.474 68.2679 7.38533 68.0905 7.208C67.9225 7.03067 67.8385 6.82533 67.8385 6.592C67.8385 6.32133 67.9179 6.10667 68.0765 5.948C68.2352 5.78933 68.4499 5.71 68.7205 5.71C68.9632 5.71 69.1685 5.79867 69.3365 5.976C69.5139 6.144 69.6025 6.34933 69.6025 6.592C69.6025 6.85333 69.5232 7.068 69.3645 7.236C69.2059 7.39467 68.9912 7.474 68.7205 7.474ZM73.9285 16.168C73.2285 16.168 72.6732 15.9393 72.2625 15.482C71.8612 15.0153 71.6605 14.3527 71.6605 13.494V10.078H70.4005V8.986H71.6885L71.9545 6.69H72.9205V8.986H74.9365V10.078H72.9205V13.592C72.9205 14.1333 73.0325 14.5113 73.2565 14.726C73.4899 14.9407 73.7652 15.048 74.0825 15.048C74.3159 15.048 74.5352 15.0107 74.7405 14.936C74.9552 14.8613 75.1512 14.7727 75.3285 14.67L75.6785 15.678C75.4919 15.79 75.2399 15.8973 74.9225 16C74.6052 16.112 74.2739 16.168 73.9285 16.168ZM83.7883 16.168C83.0976 16.168 82.4769 16.0093 81.9263 15.692C81.3756 15.3653 80.9416 14.9173 80.6243 14.348C80.3163 13.7693 80.1623 13.1067 80.1623 12.36C80.1623 11.576 80.3209 10.8993 80.6383 10.33C80.9556 9.76067 81.3896 9.322 81.9403 9.014C82.4909 8.706 83.1069 8.552 83.7883 8.552C84.4696 8.552 85.0809 8.706 85.6223 9.014C86.1729 9.322 86.6069 9.76067 86.9243 10.33C87.2509 10.89 87.4143 11.5573 87.4143 12.332C87.4143 13.1067 87.2556 13.7833 86.9383 14.362C86.6209 14.9313 86.1869 15.3747 85.6363 15.692C85.0949 16.0093 84.4789 16.168 83.7883 16.168ZM83.7883 15.048C84.5256 15.048 85.0996 14.8007 85.5103 14.306C85.9209 13.802 86.1263 13.1533 86.1263 12.36C86.1263 11.8747 86.0236 11.4313 85.8183 11.03C85.6129 10.6193 85.3329 10.2927 84.9783 10.05C84.6329 9.798 84.2363 9.672 83.7883 9.672C83.0509 9.672 82.4769 9.91467 82.0663 10.4C81.6556 10.8853 81.4503 11.5293 81.4503 12.332C81.4503 12.8173 81.5529 13.27 81.7583 13.69C81.9636 14.1007 82.2389 14.432 82.5843 14.684C82.9389 14.9267 83.3403 15.048 83.7883 15.048ZM88.8795 16V8.72H90.0975V9.938C90.3588 9.546 90.6901 9.21933 91.0915 8.958C91.5021 8.68733 91.9875 8.552 92.5475 8.552C93.3688 8.552 93.9801 8.79933 94.3815 9.294C94.7921 9.78867 94.9975 10.442 94.9975 11.254V16H93.7375V11.394C93.7375 10.8713 93.6115 10.4513 93.3595 10.134C93.1168 9.81667 92.7761 9.658 92.3375 9.658C91.9081 9.658 91.5021 9.812 91.1195 10.12C90.7368 10.4187 90.4101 10.7733 90.1395 11.184V16H88.8795Z" fill="#373737"/>
<path d="M41.25 36L46.5417 23.0833H46.5694L51.8611 36H50.1806L48.7083 32.2917H44.3333L42.8472 36H41.25ZM44.8611 30.9722H48.1806L47.1944 28.5C47.0741 28.1852 46.9583 27.875 46.8472 27.5694C46.7361 27.2639 46.625 26.8981 46.5139 26.4722C46.4028 26.8981 46.2963 27.2639 46.1944 27.5694C46.0926 27.8657 45.9769 28.1759 45.8472 28.5L44.8611 30.9722ZM53.5633 36V23.5H56.6605C57.4846 23.5 58.179 23.625 58.7438 23.875C59.3179 24.125 59.7809 24.4537 60.1327 24.8611C60.4846 25.2593 60.7392 25.6944 60.8966 26.1667C61.0633 26.6389 61.1466 27.1019 61.1466 27.5556C61.1466 28 61.0679 28.4583 60.9105 28.9306C60.7531 29.4028 60.4985 29.8426 60.1466 30.25C59.7948 30.6574 59.3318 30.9861 58.7577 31.2361C58.1837 31.4861 57.4846 31.6111 56.6605 31.6111H55.1466V36H53.5633ZM55.1466 30.1944H56.5772C57.3272 30.1944 57.9198 30.0648 58.3549 29.8056C58.7901 29.537 59.1003 29.2037 59.2855 28.8056C59.4707 28.3981 59.5633 27.9815 59.5633 27.5556C59.5633 27.1481 59.4707 26.7407 59.2855 26.3333C59.1096 25.9259 58.804 25.588 58.3688 25.3194C57.9429 25.0509 57.3457 24.9167 56.5772 24.9167H55.1466V30.1944ZM63.2633 36V23.5H66.3605C67.1846 23.5 67.879 23.625 68.4438 23.875C69.0179 24.125 69.4809 24.4537 69.8327 24.8611C70.1846 25.2593 70.4392 25.6944 70.5966 26.1667C70.7633 26.6389 70.8466 27.1019 70.8466 27.5556C70.8466 28 70.7679 28.4583 70.6105 28.9306C70.4531 29.4028 70.1985 29.8426 69.8466 30.25C69.4948 30.6574 69.0318 30.9861 68.4577 31.2361C67.8837 31.4861 67.1846 31.6111 66.3605 31.6111H64.8466V36H63.2633ZM64.8466 30.1944H66.2772C67.0272 30.1944 67.6198 30.0648 68.0549 29.8056C68.4901 29.537 68.8003 29.2037 68.9855 28.8056C69.1707 28.3981 69.2633 27.9815 69.2633 27.5556C69.2633 27.1481 69.1707 26.7407 68.9855 26.3333C68.8096 25.9259 68.504 25.588 68.0688 25.3194C67.6429 25.0509 67.0457 24.9167 66.2772 24.9167H64.8466V30.1944ZM79.5179 36.1667C78.7771 36.1667 78.1058 36.0185 77.504 35.7222C76.9114 35.4259 76.4392 35.0648 76.0873 34.6389L76.5457 32.7222C76.8049 33.2407 77.1938 33.7083 77.7123 34.125C78.2308 34.5417 78.8512 34.75 79.5734 34.75C80.2308 34.75 80.7725 34.5417 81.1984 34.125C81.6336 33.7083 81.8512 33.1944 81.8512 32.5833C81.8512 32.1389 81.7447 31.7731 81.5318 31.4861C81.3188 31.1991 81.0781 30.9722 80.8095 30.8056C80.541 30.6389 80.3281 30.5185 80.1707 30.4444L78.6429 29.6667C78.4021 29.537 78.1012 29.3565 77.7401 29.125C77.3883 28.8935 77.0781 28.5741 76.8095 28.1667C76.541 27.7593 76.4068 27.2315 76.4068 26.5833C76.4068 25.9537 76.5503 25.3935 76.8373 24.9028C77.1336 24.412 77.541 24.0278 78.0595 23.75C78.5873 23.4722 79.1892 23.3333 79.8651 23.3333C80.5318 23.3333 81.1197 23.4537 81.629 23.6944C82.1383 23.9259 82.5364 24.1667 82.8234 24.4167L82.3651 26.3333C82.1336 25.9444 81.791 25.5787 81.3373 25.2361C80.8836 24.8935 80.3697 24.7222 79.7957 24.7222C79.2401 24.7222 78.7957 24.8889 78.4623 25.2222C78.129 25.5463 77.9623 25.9491 77.9623 26.4306C77.9623 26.8009 78.0457 27.1065 78.2123 27.3472C78.3883 27.588 78.5827 27.7778 78.7957 27.9167C79.0179 28.0556 79.1984 28.162 79.3373 28.2361L80.8929 29.0139C81.0781 29.1065 81.3095 29.2361 81.5873 29.4028C81.8744 29.5694 82.1568 29.7917 82.4345 30.0694C82.7123 30.338 82.9438 30.6713 83.129 31.0694C83.3142 31.4583 83.4068 31.9306 83.4068 32.4861C83.4068 33.1991 83.2355 33.8333 82.8929 34.3889C82.5595 34.9444 82.1012 35.3796 81.5179 35.6944C80.9345 36.0093 80.2679 36.1667 79.5179 36.1667ZM84.1901 24.9167V23.5H92.4401V24.9167H89.1068V36H87.5234V24.9167H84.1901ZM98.9244 36.25C98.0262 36.25 97.179 36.0833 96.3827 35.75C95.5957 35.4074 94.9012 34.9398 94.2994 34.3472C93.7068 33.7546 93.2392 33.0648 92.8966 32.2778C92.5633 31.4907 92.3966 30.6481 92.3966 29.75C92.3966 28.8519 92.5633 28.0093 92.8966 27.2222C93.2392 26.4352 93.7068 25.7454 94.2994 25.1528C94.9012 24.5602 95.5957 24.0972 96.3827 23.7639C97.179 23.4213 98.0262 23.25 98.9244 23.25C99.8318 23.25 100.679 23.4213 101.466 23.7639C102.253 24.0972 102.943 24.5602 103.536 25.1528C104.137 25.7454 104.605 26.4352 104.938 27.2222C105.281 28.0093 105.452 28.8519 105.452 29.75C105.452 30.6481 105.281 31.4907 104.938 32.2778C104.605 33.0648 104.137 33.7546 103.536 34.3472C102.943 34.9398 102.253 35.4074 101.466 35.75C100.679 36.0833 99.8318 36.25 98.9244 36.25ZM98.9244 34.75C99.8411 34.75 100.67 34.5278 101.411 34.0833C102.151 33.6296 102.735 33.0231 103.161 32.2639C103.596 31.5046 103.813 30.6667 103.813 29.75C103.813 28.8241 103.596 27.9861 103.161 27.2361C102.735 26.4769 102.151 25.875 101.411 25.4306C100.67 24.9769 99.8411 24.75 98.9244 24.75C98.0077 24.75 97.179 24.9769 96.4383 25.4306C95.7068 25.875 95.1235 26.4769 94.6883 27.2361C94.2531 27.9861 94.0355 28.8241 94.0355 29.75C94.0355 30.6667 94.2531 31.5046 94.6883 32.2639C95.1235 33.0231 95.7068 33.6296 96.4383 34.0833C97.179 34.5278 98.0077 34.75 98.9244 34.75ZM107.782 36V23.5H110.92C111.707 23.5 112.383 23.6574 112.948 23.9722C113.513 24.287 113.948 24.7037 114.254 25.2222C114.569 25.7315 114.726 26.2917 114.726 26.9028C114.726 27.588 114.532 28.2037 114.143 28.75C113.754 29.2963 113.221 29.6991 112.545 29.9583L116.74 36H114.893L110.92 30.25H109.365V36H107.782ZM109.365 28.9167H110.92C111.457 28.9167 111.893 28.8194 112.226 28.625C112.569 28.4213 112.819 28.1667 112.976 27.8611C113.143 27.5463 113.226 27.2269 113.226 26.9028C113.226 26.3194 113.013 25.8426 112.587 25.4722C112.17 25.1019 111.615 24.9167 110.92 24.9167H109.365V28.9167ZM118.28 36V23.5H124.446V24.9167H119.863V27.5833H123.474V29H119.863V34.5833H124.446V36H118.28Z" fill="#373737"/>
</svg>
