<svg width="197" height="48" viewBox="0 0 197 48" fill="none" xmlns="http://www.w3.org/2000/svg">
<rect width="146" height="48" rx="10" fill="#FFFBF9"/>
<g clip-path="url(#clip0_565_6848)">
<path d="M20.8287 24.3486L9.10498 36.6315C9.23664 37.0981 9.47323 37.5284 9.79666 37.8895C10.1201 38.2506 10.5218 38.533 10.9711 38.7151C11.4204 38.8972 11.9054 38.9741 12.389 38.94C12.8726 38.9059 13.342 38.7617 13.7613 38.5184L26.9527 31.0055L20.8287 24.3486Z" fill="#EA4335"/>
<path d="M32.6835 22.2606L26.9791 18.9932L20.5581 24.6278L27.0052 30.9876L32.6662 27.7553C33.1677 27.4927 33.5877 27.0978 33.8808 26.6135C34.1739 26.1292 34.3288 25.574 34.3288 25.0079C34.3288 24.4418 34.1739 23.8865 33.8808 23.4022C33.5877 22.9179 33.1677 22.523 32.6662 22.2605L32.6835 22.2606Z" fill="#FBBC04"/>
<path d="M9.10491 13.3237C9.03409 13.5857 8.99881 13.856 9.00003 14.1274V35.8276C9.00073 36.0989 9.03597 36.369 9.10491 36.6314L21.2305 24.663L9.10491 13.3237Z" fill="#4285F4"/>
<path d="M20.916 24.9776L26.9789 18.9935L13.805 11.4455C13.3094 11.1553 12.7456 11.0015 12.1712 11C10.7458 10.9972 9.49263 11.9433 9.10498 13.3151L20.916 24.9776Z" fill="#34A853"/>
</g>
<path d="M44.75 35V22.5H47.8472C48.6713 22.5 49.3657 22.625 49.9306 22.875C50.5046 23.125 50.9676 23.4537 51.3194 23.8611C51.6713 24.2593 51.9259 24.6944 52.0833 25.1667C52.25 25.6389 52.3333 26.1019 52.3333 26.5556C52.3333 27 52.2546 27.4583 52.0972 27.9306C51.9398 28.4028 51.6852 28.8426 51.3333 29.25C50.9815 29.6574 50.5185 29.9861 49.9444 30.2361C49.3704 30.4861 48.6713 30.6111 47.8472 30.6111H46.3333V35H44.75ZM46.3333 29.1944H47.7639C48.5139 29.1944 49.1065 29.0648 49.5417 28.8056C49.9769 28.537 50.287 28.2037 50.4722 27.8056C50.6574 27.3981 50.75 26.9815 50.75 26.5556C50.75 26.1481 50.6574 25.7407 50.4722 25.3333C50.2963 24.9259 49.9907 24.588 49.5556 24.3194C49.1296 24.0509 48.5324 23.9167 47.7639 23.9167H46.3333V29.1944ZM54.45 35V22.5H56.0333V33.5833H60.3667V35H54.45ZM60.9898 35L66.2815 22.0833H66.3093L71.601 35H69.9204L68.4482 31.2917H64.0732L62.5871 35H60.9898ZM64.601 29.9722H67.9204L66.9343 27.5C66.8139 27.1852 66.6982 26.875 66.5871 26.5694C66.476 26.2639 66.3648 25.8981 66.2537 25.4722C66.1426 25.8981 66.0361 26.2639 65.9343 26.5694C65.8324 26.8657 65.7167 27.1759 65.5871 27.5L64.601 29.9722ZM73.893 35V28.9583L70.143 22.5H71.9763L74.0319 26.1389C74.1615 26.3704 74.2819 26.6019 74.393 26.8333C74.5133 27.0556 74.6337 27.3148 74.7541 27.6111C74.8745 27.3148 74.9948 27.0556 75.1152 26.8333C75.2356 26.6019 75.3606 26.3704 75.4902 26.1389L77.5596 22.5H79.2263L75.4763 28.9583V35H73.893ZM82.9241 35.1667C82.1834 35.1667 81.5121 35.0185 80.9102 34.7222C80.3176 34.4259 79.8454 34.0648 79.4936 33.6389L79.9519 31.7222C80.2112 32.2407 80.6001 32.7083 81.1186 33.125C81.6371 33.5417 82.2575 33.75 82.9797 33.75C83.6371 33.75 84.1788 33.5417 84.6047 33.125C85.0399 32.7083 85.2575 32.1944 85.2575 31.5833C85.2575 31.1389 85.151 30.7731 84.938 30.4861C84.7251 30.1991 84.4843 29.9722 84.2158 29.8056C83.9473 29.6389 83.7343 29.5185 83.5769 29.4444L82.0491 28.6667C81.8084 28.537 81.5075 28.3565 81.1464 28.125C80.7945 27.8935 80.4843 27.5741 80.2158 27.1667C79.9473 26.7593 79.813 26.2315 79.813 25.5833C79.813 24.9537 79.9565 24.3935 80.2436 23.9028C80.5399 23.412 80.9473 23.0278 81.4658 22.75C81.9936 22.4722 82.5954 22.3333 83.2714 22.3333C83.938 22.3333 84.526 22.4537 85.0352 22.6944C85.5445 22.9259 85.9426 23.1667 86.2297 23.4167L85.7714 25.3333C85.5399 24.9444 85.1973 24.5787 84.7436 24.2361C84.2899 23.8935 83.776 23.7222 83.2019 23.7222C82.6464 23.7222 82.2019 23.8889 81.8686 24.2222C81.5352 24.5463 81.3686 24.9491 81.3686 25.4306C81.3686 25.8009 81.4519 26.1065 81.6186 26.3472C81.7945 26.588 81.9889 26.7778 82.2019 26.9167C82.4241 27.0556 82.6047 27.162 82.7436 27.2361L84.2991 28.0139C84.4843 28.1065 84.7158 28.2361 84.9936 28.4028C85.2806 28.5694 85.563 28.7917 85.8408 29.0694C86.1186 29.338 86.3501 29.6713 86.5352 30.0694C86.7204 30.4583 86.813 30.9306 86.813 31.4861C86.813 32.1991 86.6417 32.8333 86.2991 33.3889C85.9658 33.9444 85.5075 34.3796 84.9241 34.6944C84.3408 35.0093 83.6741 35.1667 82.9241 35.1667ZM87.5964 23.9167V22.5H95.8464V23.9167H92.513V35H90.9297V23.9167H87.5964ZM102.331 35.25C101.432 35.25 100.585 35.0833 99.789 34.75C99.0019 34.4074 98.3075 33.9398 97.7056 33.3472C97.1131 32.7546 96.6455 32.0648 96.3029 31.2778C95.9695 30.4907 95.8029 29.6481 95.8029 28.75C95.8029 27.8519 95.9695 27.0093 96.3029 26.2222C96.6455 25.4352 97.1131 24.7454 97.7056 24.1528C98.3075 23.5602 99.0019 23.0972 99.789 22.7639C100.585 22.4213 101.432 22.25 102.331 22.25C103.238 22.25 104.085 22.4213 104.872 22.7639C105.659 23.0972 106.349 23.5602 106.942 24.1528C107.544 24.7454 108.011 25.4352 108.345 26.2222C108.687 27.0093 108.858 27.8519 108.858 28.75C108.858 29.6481 108.687 30.4907 108.345 31.2778C108.011 32.0648 107.544 32.7546 106.942 33.3472C106.349 33.9398 105.659 34.4074 104.872 34.75C104.085 35.0833 103.238 35.25 102.331 35.25ZM102.331 33.75C103.247 33.75 104.076 33.5278 104.817 33.0833C105.557 32.6296 106.141 32.0231 106.567 31.2639C107.002 30.5046 107.22 29.6667 107.22 28.75C107.22 27.8241 107.002 26.9861 106.567 26.2361C106.141 25.4769 105.557 24.875 104.817 24.4306C104.076 23.9769 103.247 23.75 102.331 23.75C101.414 23.75 100.585 23.9769 99.8445 24.4306C99.1131 24.875 98.5297 25.4769 98.0945 26.2361C97.6593 26.9861 97.4418 27.8241 97.4418 28.75C97.4418 29.6667 97.6593 30.5046 98.0945 31.2639C98.5297 32.0231 99.1131 32.6296 99.8445 33.0833C100.585 33.5278 101.414 33.75 102.331 33.75ZM111.188 35V22.5H114.327C115.114 22.5 115.79 22.6574 116.354 22.9722C116.919 23.287 117.354 23.7037 117.66 24.2222C117.975 24.7315 118.132 25.2917 118.132 25.9028C118.132 26.588 117.938 27.2037 117.549 27.75C117.16 28.2963 116.628 28.6991 115.952 28.9583L120.146 35H118.299L114.327 29.25H112.771V35H111.188ZM112.771 27.9167H114.327C114.864 27.9167 115.299 27.8194 115.632 27.625C115.975 27.4213 116.225 27.1667 116.382 26.8611C116.549 26.5463 116.632 26.2269 116.632 25.9028C116.632 25.3194 116.419 24.8426 115.993 24.4722C115.577 24.1019 115.021 23.9167 114.327 23.9167H112.771V27.9167ZM121.686 35V22.5H127.853V23.9167H123.269V26.5833H126.88V28H123.269V33.5833H127.853V35H121.686Z" fill="#373737"/>
<path d="M46.836 15.112C46.304 15.112 45.8373 15.098 45.436 15.07C45.044 15.042 44.652 15.0093 44.26 14.972V5.228C44.6987 5.18133 45.128 5.14867 45.548 5.13C45.968 5.102 46.4487 5.088 46.99 5.088C47.83 5.088 48.5533 5.21867 49.16 5.48C49.776 5.74133 50.28 6.10067 50.672 6.558C51.0733 7.01533 51.3673 7.54733 51.554 8.154C51.75 8.75133 51.848 9.39533 51.848 10.086C51.848 10.7673 51.75 11.4113 51.554 12.018C51.358 12.6247 51.0547 13.1613 50.644 13.628C50.2427 14.0853 49.7247 14.4493 49.09 14.72C48.4647 14.9813 47.7133 15.112 46.836 15.112ZM46.878 13.95C47.718 13.95 48.404 13.7867 48.936 13.46C49.468 13.1333 49.86 12.6807 50.112 12.102C50.364 11.514 50.49 10.842 50.49 10.086C50.49 9.414 50.364 8.784 50.112 8.196C49.86 7.608 49.4727 7.13667 48.95 6.782C48.4273 6.418 47.76 6.236 46.948 6.236C46.6773 6.236 46.43 6.24533 46.206 6.264C45.982 6.27333 45.7767 6.28733 45.59 6.306V13.88C45.786 13.908 45.9913 13.9267 46.206 13.936C46.4207 13.9453 46.6447 13.95 46.878 13.95ZM56.519 15.168C55.8283 15.168 55.2076 15.0093 54.657 14.692C54.1063 14.3653 53.6723 13.9173 53.355 13.348C53.047 12.7693 52.893 12.1067 52.893 11.36C52.893 10.576 53.0516 9.89933 53.369 9.33C53.6863 8.76067 54.1203 8.322 54.671 8.014C55.2216 7.706 55.8376 7.552 56.519 7.552C57.2003 7.552 57.8116 7.706 58.353 8.014C58.9036 8.322 59.3376 8.76067 59.655 9.33C59.9816 9.89 60.145 10.5573 60.145 11.332C60.145 12.1067 59.9863 12.7833 59.669 13.362C59.3516 13.9313 58.9176 14.3747 58.367 14.692C57.8256 15.0093 57.2096 15.168 56.519 15.168ZM56.519 14.048C57.2563 14.048 57.8303 13.8007 58.241 13.306C58.6516 12.802 58.857 12.1533 58.857 11.36C58.857 10.8747 58.7543 10.4313 58.549 10.03C58.3436 9.61933 58.0636 9.29267 57.709 9.05C57.3636 8.798 56.967 8.672 56.519 8.672C55.7816 8.672 55.2076 8.91467 54.797 9.4C54.3863 9.88533 54.181 10.5293 54.181 11.332C54.181 11.8173 54.2836 12.27 54.489 12.69C54.6943 13.1007 54.9696 13.432 55.315 13.684C55.6696 13.9267 56.071 14.048 56.519 14.048ZM62.9994 15L60.7034 8.056L61.8654 7.65L63.7414 13.572L65.4494 8.238H66.8074L68.4734 13.572L70.3354 7.65L71.4554 8.056L69.1454 15H67.7594L66.0794 9.582L64.3854 15H62.9994ZM72.7205 15V7.72H73.9385V8.938C74.1998 8.546 74.5311 8.21933 74.9325 7.958C75.3431 7.68733 75.8285 7.552 76.3885 7.552C77.2098 7.552 77.8211 7.79933 78.2225 8.294C78.6331 8.78867 78.8385 9.442 78.8385 10.254V15H77.5785V10.394C77.5785 9.87133 77.4525 9.45133 77.2005 9.134C76.9578 8.81667 76.6171 8.658 76.1785 8.658C75.7491 8.658 75.3431 8.812 74.9605 9.12C74.5778 9.41867 74.2511 9.77333 73.9805 10.184V15H72.7205ZM83.0076 15.168C82.5783 15.168 82.191 15.0887 81.8456 14.93C81.5003 14.762 81.225 14.496 81.0196 14.132C80.8236 13.768 80.7256 13.2967 80.7256 12.718V4.64H81.9856V12.592C81.9856 13.096 82.0883 13.4693 82.2936 13.712C82.5083 13.9547 82.8023 14.076 83.1756 14.076C83.353 14.076 83.5256 14.0573 83.6936 14.02C83.871 13.9733 84.0203 13.922 84.1416 13.866L84.4496 14.888C84.2816 14.9627 84.0716 15.028 83.8196 15.084C83.577 15.14 83.3063 15.168 83.0076 15.168ZM88.2864 15.168C87.5957 15.168 86.9751 15.0093 86.4244 14.692C85.8737 14.3653 85.4397 13.9173 85.1224 13.348C84.8144 12.7693 84.6604 12.1067 84.6604 11.36C84.6604 10.576 84.8191 9.89933 85.1364 9.33C85.4537 8.76067 85.8877 8.322 86.4384 8.014C86.9891 7.706 87.6051 7.552 88.2864 7.552C88.9677 7.552 89.5791 7.706 90.1204 8.014C90.6711 8.322 91.1051 8.76067 91.4224 9.33C91.7491 9.89 91.9124 10.5573 91.9124 11.332C91.9124 12.1067 91.7537 12.7833 91.4364 13.362C91.1191 13.9313 90.6851 14.3747 90.1344 14.692C89.5931 15.0093 88.9771 15.168 88.2864 15.168ZM88.2864 14.048C89.0237 14.048 89.5977 13.8007 90.0084 13.306C90.4191 12.802 90.6244 12.1533 90.6244 11.36C90.6244 10.8747 90.5217 10.4313 90.3164 10.03C90.1111 9.61933 89.8311 9.29267 89.4764 9.05C89.1311 8.798 88.7344 8.672 88.2864 8.672C87.5491 8.672 86.9751 8.91467 86.5644 9.4C86.1537 9.88533 85.9484 10.5293 85.9484 11.332C85.9484 11.8173 86.0511 12.27 86.2564 12.69C86.4617 13.1007 86.7371 13.432 87.0824 13.684C87.4371 13.9267 87.8384 14.048 88.2864 14.048ZM96.1636 15.168C95.5569 15.168 95.0062 15.014 94.5116 14.706C94.0169 14.398 93.6202 13.964 93.3216 13.404C93.0322 12.8347 92.8876 12.1673 92.8876 11.402C92.8876 10.674 93.0322 10.0207 93.3216 9.442C93.6202 8.86333 94.0262 8.406 94.5396 8.07C95.0622 7.72467 95.6596 7.552 96.3316 7.552C96.7516 7.552 97.1296 7.62667 97.4656 7.776C97.8109 7.916 98.1096 8.09333 98.3616 8.308V7.72H99.5096V13.236C99.5096 13.5907 99.5936 13.824 99.7616 13.936C99.9389 14.0387 100.13 14.09 100.336 14.09L100.07 15.07C99.1736 15.07 98.6322 14.706 98.4456 13.978C98.2309 14.2767 97.9369 14.552 97.5636 14.804C97.1996 15.0467 96.7329 15.168 96.1636 15.168ZM96.4436 14.048C96.7982 14.048 97.1342 13.964 97.4516 13.796C97.7689 13.6187 98.0349 13.3993 98.2496 13.138V9.232C97.9976 9.05467 97.7176 8.91467 97.4096 8.812C97.1109 8.7 96.7936 8.644 96.4576 8.644C96.0096 8.644 95.6129 8.76067 95.2676 8.994C94.9316 9.218 94.6656 9.53533 94.4696 9.946C94.2736 10.3473 94.1756 10.8187 94.1756 11.36C94.1756 11.8827 94.2736 12.3493 94.4696 12.76C94.6656 13.1613 94.9362 13.4787 95.2816 13.712C95.6269 13.936 96.0142 14.048 96.4436 14.048ZM104.429 15.168C103.832 15.168 103.286 15.014 102.791 14.706C102.297 14.398 101.905 13.964 101.615 13.404C101.326 12.8347 101.181 12.1673 101.181 11.402C101.181 10.6647 101.326 10.0067 101.615 9.428C101.914 8.84933 102.306 8.392 102.791 8.056C103.286 7.72 103.827 7.552 104.415 7.552C104.901 7.552 105.316 7.65 105.661 7.846C106.016 8.042 106.291 8.24267 106.487 8.448V4.64H107.747V13.236C107.747 13.5907 107.831 13.824 107.999 13.936C108.177 14.0387 108.368 14.09 108.573 14.09L108.307 15.07C107.421 15.07 106.879 14.7153 106.683 14.006C106.478 14.2953 106.189 14.5613 105.815 14.804C105.451 15.0467 104.989 15.168 104.429 15.168ZM104.709 14.048C105.055 14.048 105.381 13.9687 105.689 13.81C106.007 13.642 106.273 13.4273 106.487 13.166V9.554C106.31 9.33 106.063 9.12467 105.745 8.938C105.428 8.742 105.078 8.644 104.695 8.644C104.247 8.644 103.855 8.76533 103.519 9.008C103.183 9.25067 102.922 9.57733 102.735 9.988C102.558 10.3893 102.469 10.8467 102.469 11.36C102.469 11.8733 102.567 12.3353 102.763 12.746C102.959 13.1473 103.225 13.4647 103.561 13.698C103.907 13.9313 104.289 14.048 104.709 14.048ZM117.101 15.168C116.41 15.168 115.789 15.0093 115.239 14.692C114.688 14.3653 114.254 13.9173 113.937 13.348C113.629 12.7693 113.475 12.1067 113.475 11.36C113.475 10.576 113.633 9.89933 113.951 9.33C114.268 8.76067 114.702 8.322 115.253 8.014C115.803 7.706 116.419 7.552 117.101 7.552C117.782 7.552 118.393 7.706 118.935 8.014C119.485 8.322 119.919 8.76067 120.237 9.33C120.563 9.89 120.727 10.5573 120.727 11.332C120.727 12.1067 120.568 12.7833 120.251 13.362C119.933 13.9313 119.499 14.3747 118.949 14.692C118.407 15.0093 117.791 15.168 117.101 15.168ZM117.101 14.048C117.838 14.048 118.412 13.8007 118.823 13.306C119.233 12.802 119.439 12.1533 119.439 11.36C119.439 10.8747 119.336 10.4313 119.131 10.03C118.925 9.61933 118.645 9.29267 118.291 9.05C117.945 8.798 117.549 8.672 117.101 8.672C116.363 8.672 115.789 8.91467 115.379 9.4C114.968 9.88533 114.763 10.5293 114.763 11.332C114.763 11.8173 114.865 12.27 115.071 12.69C115.276 13.1007 115.551 13.432 115.897 13.684C116.251 13.9267 116.653 14.048 117.101 14.048ZM122.192 15V7.72H123.41V8.938C123.671 8.546 124.003 8.21933 124.404 7.958C124.815 7.68733 125.3 7.552 125.86 7.552C126.681 7.552 127.293 7.79933 127.694 8.294C128.105 8.78867 128.31 9.442 128.31 10.254V15H127.05V10.394C127.05 9.87133 126.924 9.45133 126.672 9.134C126.429 8.81667 126.089 8.658 125.65 8.658C125.221 8.658 124.815 8.812 124.432 9.12C124.049 9.41867 123.723 9.77333 123.452 10.184V15H122.192Z" fill="#373737"/>
<defs>
<clipPath id="clip0_565_6848">
<rect width="25.3286" height="28" fill="white" transform="translate(9 11)"/>
</clipPath>
</defs>
</svg>
